<svg width="186" height="82" viewBox="0 0 186 82" fill="none" xmlns="http://www.w3.org/2000/svg">
<path d="M0.144 76.768V3.808L22.32 1.79199C22.768 1.72799 23.184 1.696 23.568 1.696C23.952 1.696 24.368 1.696 24.816 1.696C29.552 1.696 34.576 2.976 39.888 5.536C43.728 7.392 46.832 9.824 49.2 12.832C51.568 15.776 52.752 19.424 52.752 23.776C52.752 27.488 52.08 30.624 50.736 33.184C49.392 35.68 47.6 37.6 45.36 38.944C48.304 39.584 50.896 41.344 53.136 44.224C55.44 47.04 56.592 51.104 56.592 56.416C56.592 60.384 55.728 64.032 54 67.36C52.272 70.688 49.712 73.44 46.32 75.616C42.992 77.728 38.864 79.008 33.936 79.456L9.744 81.568L0.144 76.768ZM24.24 73.792C28.976 73.344 32.944 72.096 36.144 70.048C39.408 68 41.872 65.376 43.536 62.176C45.2 58.912 46.032 55.392 46.032 51.616C46.032 47.968 45.424 44.928 44.208 42.496C43.056 40.064 41.488 38.24 39.504 37.024C37.584 35.744 35.472 35.008 33.168 34.816L33.072 34.432C35.952 33.152 38.192 31.232 39.792 28.672C41.392 26.112 42.192 22.88 42.192 18.976C42.192 14.24 40.624 10.336 37.488 7.264C34.416 4.192 30.192 2.65599 24.816 2.65599C24.432 2.65599 24.016 2.65599 23.568 2.65599C23.184 2.65599 22.8 2.688 22.416 2.752L1.104 4.672V75.808L24.24 73.792ZM15.6 16.96L19.92 16.576C20.24 16.512 20.56 16.48 20.88 16.48C21.2 16.48 21.488 16.48 21.744 16.48C23.984 16.48 25.616 16.992 26.64 18.016C27.664 18.976 28.176 20.48 28.176 22.528C28.176 27.136 25.392 29.696 19.824 30.208L15.6 30.592V16.96ZM24.24 28C26.224 27.04 27.216 25.216 27.216 22.528C27.216 22.336 27.216 22.144 27.216 21.952C27.216 21.76 27.184 21.568 27.12 21.376L24.24 21.664V28ZM15.6 44.128L22.032 43.552C22.288 43.552 22.512 43.552 22.704 43.552C22.896 43.488 23.12 43.456 23.376 43.456C25.808 43.456 27.792 44.096 29.328 45.376C30.864 46.656 31.632 48.544 31.632 51.04C31.632 56.8 28.784 59.904 23.088 60.352L15.6 61.024V44.128ZM26.16 58.72C29.168 57.44 30.672 54.88 30.672 51.04C30.672 50.72 30.64 50.432 30.576 50.176C30.576 49.92 30.544 49.664 30.48 49.408L26.16 49.792V58.72ZM65.769 76.768V3.808L107.145 0.159998L116.745 4.96V20.704L91.785 22.912V28.672L102.057 27.712L111.657 32.512V48.064L91.785 49.888V58.912L108.777 57.376L118.377 62.176V77.824L75.369 81.568L65.769 76.768ZM81.225 60.832V44.224L101.097 42.4V28.768L81.225 30.592V17.248L106.185 15.04V1.216L66.729 4.672V75.808L107.817 72.16V58.432L81.225 60.832ZM160.019 75.136L152.819 58.912V80.416L136.307 81.856L126.707 77.056V4.096L142.259 2.752L151.859 7.55199L158.963 22.912V2.272L175.667 0.735996L185.267 5.536V78.592L169.619 79.936L160.019 75.136ZM159.923 3.13599V30.016C159.923 30.72 159.955 31.872 160.019 33.472C160.083 35.008 160.147 36.64 160.211 38.368C160.339 40.032 160.435 41.472 160.499 42.688C160.563 43.84 160.595 44.416 160.595 44.416L160.307 44.608C160.307 44.608 160.211 44.256 160.019 43.552C159.891 42.848 159.667 42.016 159.347 41.056C159.027 40.032 158.675 39.104 158.291 38.272L141.683 3.808L127.667 4.96V76L142.259 74.848V49.696C142.259 48.928 142.227 47.616 142.163 45.76C142.099 43.904 142.035 41.952 141.971 39.904C141.971 37.856 141.939 36.128 141.875 34.72C141.811 33.248 141.779 32.512 141.779 32.512L142.067 32.416C142.067 32.416 142.227 33.056 142.547 34.336C142.931 35.552 143.443 36.832 144.083 38.176L160.883 74.176L174.707 72.928V1.79199L159.923 3.13599Z" fill="black"/>
</svg>
